<svg width="45" height="44" viewBox="0 0 45 44" fill="none" xmlns="http://www.w3.org/2000/svg">
<g clip-path="url(#clip0_840_109)">
<path d="M26.5868 21.9996L34.256 14.3304C35.2469 13.3396 35.2469 11.734 34.256 10.7432C33.2651 9.75228 31.6596 9.75228 30.6687 10.7432L22.9996 18.4132L15.3304 10.744C14.3396 9.75314 12.734 9.75314 11.7432 10.744C10.7523 11.7349 10.7523 13.3404 11.7432 14.3313L19.4123 22.0004L11.7432 29.6696C10.7523 30.6605 10.7523 32.266 11.7432 33.2568C12.734 34.2477 14.3396 34.2477 15.3304 33.2568L22.9996 25.5877L30.6687 33.2568C31.6596 34.2477 33.2651 34.2477 34.256 33.2568C35.2469 32.266 35.2469 30.6604 34.256 29.6696L26.5868 21.9996Z" fill="#D6D6D6"/>
</g>
<path d="M43 22C43 33.0036 33.8644 42 22.5 42C11.1356 42 2 33.0036 2 22C2 10.9964 11.1356 2 22.5 2C33.8644 2 43 10.9964 43 22Z" stroke="#D6D6D6" stroke-width="4"/>
<defs>
<clipPath id="clip0_840_109">
<rect width="24" height="24" fill="white" transform="translate(11 10)"/>
</clipPath>
</defs>
</svg>
